<svg t="1650885209564" class="icon" viewBox="0 0 1024 1024" version="1.1" xmlns="http://www.w3.org/2000/svg" p-id="1626" width="200" height="200">
<path d="M986.624 551.68a15.37024 15.37024 0 0 0-18.432-11.52 15.4112 15.4112 0 0 0-11.52 18.432c4.7104 20.224 7.2704 41.8816 7.68 64.3072 1.024 55.6544-21.7088 109.312-64.0512 151.0912-53.2992 52.6336-131.2768 81.3568-214.1696 78.7456-57.6512-1.792-101.1712-15.5648-129.5872-40.9088 31.9488-22.784 144.8448-118.6304 91.8528-302.0288-12.3392-42.7008-39.3216-74.8544-68.4032-98.4064 15.4624-7.5776 32.768-14.8992 51.456-20.8896 1.6384 0.6656 3.3792 1.0752 5.2224 1.1264 0.6144 0 61.8496 1.9968 114.3296 43.1104 2.816 2.2016 6.144 3.2768 9.472 3.2768 4.5568 0 9.0624-1.9968 12.0832-5.888 5.2224-6.656 4.0448-16.3328-2.6112-21.5552-20.6336-16.128-42.1376-27.0336-61.7472-34.3552 15.2576-0.7168 30.8736-0.1536 46.7456 2.2016 79.2576 11.7248 139.9296 50.688 175.4624 112.5888a15.33952 15.33952 0 0 0 20.992 5.6832 15.33952 15.33952 0 0 0 5.6832-20.9408c-38.144-66.5088-101.2736-109.5168-183.1424-125.184 67.584-48.2304 108.3904-114.1248 110.3872-117.3504 3.2768-5.376 2.9184-12.1856-0.8704-17.2544a15.49824 15.49824 0 0 0-16.384-5.5808c-0.5632 0.1536-57.6512 15.36-123.4432-10.9568-2.3552-0.9216-4.6592-1.8432-6.912-2.7136-71.6288-27.2384-121.088-24.1664-211.7632 13.312-30.4128 12.544-61.4912 16.7424-92.3136 12.4928-3.072-0.4096-6.0928-0.3584-9.0624-0.0512 0.4096-5.632 0.9216-10.9056 1.4336-15.7184 4.7104-42.1888-13.3632-58.9312-27.8016-72.3968-16.64-15.4624-58.2656-5.632-90.2656 5.376-4.9664 1.6896-8.704 5.7856-9.9328 10.9056-9.984 41.0624 27.4432 95.0272 47.5648 124.0064l0.512 0.7168c-12.2368 15.2576-34.56 32.9216-72.704 33.5872-31.2832 0.512-59.904 7.9872-87.552 22.7328-7.4752 3.9936-10.2912 13.312-6.2976 20.7872a15.40608 15.40608 0 0 0 20.7872 6.3488c23.1936-12.3904 47.3088-18.6368 73.5744-19.0976 29.7472-0.512 52.2752-9.1136 69.12-20.3264-5.376 11.8272-9.0624 21.504-10.8032 28.8256-0.7168 2.9696-1.5872 7.168-2.6624 12.288-6.2976 30.5152-19.3536 93.952-51.456 130.0992-19.1488 21.5552-76.9536 32-147.2512 26.5728-22.0672-1.6896-43.4688-5.0176-60.5184-9.216 26.4704-48.384 54.016-86.528 82.0736-113.5616a15.36 15.36 0 0 0 0.4096-21.7088 15.31392 15.31392 0 0 0-21.7088-0.4096c-34.048 32.768-65.6896 77.9264-96.768 137.984a15.37536 15.37536 0 0 0 8.3968 21.504c16.9984 6.144 40.704 11.1104 66.816 14.1824-36.3008 123.1872 13.056 210.7392 46.9504 252.9792 3.0208 3.7888 7.4752 5.7344 11.9808 5.7344 3.3792 0 6.7584-1.1264 9.6256-3.3792 6.6048-5.3248 7.68-15.0016 2.3552-21.6064-30.6176-38.0928-75.4176-117.9136-39.6288-231.0656 6.8608 0.3584 15.0528 0.6144 24.1664 0.6144 43.776 0 107.5712-6.0416 136.0896-38.1952 29.44-33.1776 44.4928-82.6368 52.9408-118.4256-0.4096 14.8992-1.0752 30.1056-1.9456 44.9536-6.8608 4.096-9.5232 12.7488-5.888 20.0192a15.39072 15.39072 0 0 0 16.3328 8.2432c7.7824-0.0512 57.856 3.1232 103.936 25.3952a15.29856 15.29856 0 0 0 20.48-7.168c3.6864-7.6288 0.4608-16.8448-7.168-20.5312-17.2032-8.2944-35.84-14.592-53.4016-19.0976-0.6144-10.9568-2.048-38.2464-3.1232-67.6352 27.5456 3.2768 43.1104 8.704 43.264 8.7552 0.3584 0.1024 0.7168 0.256 1.0752 0.3584 1.2288 0.3584 124.3136 36.2496 152.1664 132.7104 34.4064 118.9888-6.656 195.1744-44.4928 236.8 7.7312-37.5808 13.2096-94.1568 2.4576-166.9632-3.84-26.112-13.5168-49.664-28.7232-70.0416a15.36 15.36 0 1 0-24.6272 18.3808c12.1344 16.2304 19.8144 35.1232 22.9376 56.1152 18.2272 123.904-13.8752 197.6832-15.872 202.1376-2.0992 4.096-4.5568 8.1408-7.3216 12.032-18.0736 25.7536-65.3312 68.096-178.2784 62.6688-31.0272-1.4848-80.3328-19.2-114.688-41.216-7.168-4.608-16.64-2.5088-21.1968 4.6592-4.5568 7.168-2.5088 16.64 4.6592 21.1968 38.912 24.9344 93.4912 44.288 129.7408 46.0288 7.168 0.3584 14.1312 0.512 20.8384 0.512 97.8432 0 148.8896-35.2768 174.08-63.6928 33.8944 28.928 83.1488 44.5952 146.6368 46.592 3.7376 0.1024 7.4752 0.2048 11.2128 0.2048 86.9888 0 168.6528-31.6416 225.4848-87.7568 48.384-47.7696 74.3424-109.3632 73.1648-173.5168-0.1024-24.9856-2.9696-48.7424-8.1408-71.0656z m-448.1024-168.3456c5.632 2.0992 11.4176 4.096 17.3056 5.888-1.3312 0.7168-2.6112 1.3824-3.8912 2.0992-4.5568-2.8672-9.0112-5.5296-13.4144-7.9872zM422.3488 255.7952c0.7168-1.3312 2.5088-3.5328 6.144-3.0208 36.352 5.0688 72.7552 0.1536 108.2368-14.5408 83.0464-34.304 125.44-37.2224 189.1328-13.0048 2.0992 0.8192 4.2496 1.6384 6.4 2.5088 41.3696 16.5376 79.36 18.8416 105.8304 17.408-22.3232 28.672-62.208 72.6528-113.8176 99.9424-44.7488-0.6656-86.784 9.5232-122.7264 23.296-1.2288-0.512-2.4576-0.9728-3.84-1.1776-85.4016-12.7488-146.1248-71.3216-174.6944-105.1136-0.8192-0.9728-1.1776-1.8944-1.28-2.816 0-0.768 0.0512-1.536 0.0512-2.304 0.1536-0.3584 0.3584-0.8192 0.5632-1.1776zM326.144 165.6832c21.9648-6.656 44.4416-10.4448 50.944-8.3456 12.3392 11.4688 20.4288 19.5072 17.5104 45.8752-1.5872 14.4384-2.7648 32.1024-3.4816 52.1728-0.1024 1.1776-0.1536 2.4064-0.1024 3.584-0.768 24.2176-0.9216 51.8144-0.3584 81.4592 0.1024 5.7344 0.256 11.5712 0.4096 17.4592 0.8192 29.0304 2.304 59.0848 3.2256 76.9536h-12.1856c2.7648-49.5104 6.1952-151.296-10.4448-175.4112l-1.7408-2.5088c-13.5168-19.5072-43.5712-62.8224-43.776-91.2384z m95.3856 179.7632l-0.1536-5.6832c-0.2048-11.776-0.3072-23.296-0.3072-34.4576 18.944 18.944 44.0832 40.2432 74.8032 57.8048-10.6496-4.1472-18.1248-6.4-20.3264-7.0656-3.584-1.1776-22.6304-7.2704-54.016-10.5984z" fill="#3C3C44" p-id="1627"></path><path d="M788.8384 448.6656a15.36512 15.36512 0 0 0-3.2256 21.504c27.2896 36.9664 41.8304 85.5552 43.264 144.5376a15.40096 15.40096 0 0 0 15.36 15.0016h0.4096a15.29856 15.29856 0 0 0 14.9504-15.7184c-1.5872-65.3824-18.176-119.9104-49.2544-161.9968a15.35488 15.35488 0 0 0-21.504-3.328z" fill="#3C3C44" p-id="1628">
</path>
</svg>
